<?xml version="1.0" standalone="no"?>
<!DOCTYPE svg PUBLIC "-//W3C//DTD SVG 20010904//EN"
 "http://www.w3.org/TR/2001/REC-SVG-20010904/DTD/svg10.dtd">
<svg version="1.0" xmlns="http://www.w3.org/2000/svg"
 width="512.000000pt" height="512.000000pt" viewBox="0 0 512.000000 512.000000"
 preserveAspectRatio="xMidYMid meet">
<metadata>
Created by potrace 1.14, written by Peter Selinger 2001-2017
</metadata>
<g transform="translate(0.000000,512.000000) scale(0.100000,-0.100000)"
fill="#000000" stroke="none">
<path d="M2359 4256 c-2 -2 -35 -6 -74 -10 -152 -13 -335 -48 -485 -93 -47
-14 -96 -27 -110 -30 -14 -3 -29 -9 -35 -13 -5 -4 -28 -13 -50 -20 -96 -30
-330 -139 -442 -206 -476 -282 -855 -679 -1110 -1159 -45 -86 -47 -93 -47
-170 0 -73 4 -87 38 -155 21 -41 53 -97 70 -125 17 -27 37 -61 44 -75 18 -35
145 -212 216 -301 141 -176 410 -423 611 -561 357 -245 794 -414 1205 -464 25
-3 72 -10 105 -14 64 -9 514 -6 580 5 196 30 253 40 340 62 289 72 561 185
805 336 100 62 234 156 238 169 2 4 10 8 17 8 7 0 15 3 17 8 2 4 41 39 88 79
269 226 537 564 697 876 33 65 37 80 37 152 1 90 -10 116 -127 310 -297 492
-738 893 -1245 1132 -163 76 -442 173 -572 197 -14 2 -61 12 -105 20 -44 9
-104 19 -134 22 -30 3 -64 8 -75 11 -24 6 -491 14 -497 9z m396 -431 c102 -8
161 -16 240 -31 11 -2 31 -6 45 -9 14 -2 61 -14 105 -25 351 -92 660 -253 960
-500 65 -53 263 -260 324 -337 137 -176 246 -351 236 -382 -15 -49 -178 -286
-286 -416 -99 -120 -315 -316 -459 -417 -293 -206 -703 -372 -995 -404 -22 -2
-49 -6 -60 -9 -109 -23 -530 -23 -615 0 -8 2 -33 6 -55 10 -285 41 -590 153
-864 317 -47 28 -88 54 -91 57 -3 3 -27 21 -55 40 -153 106 -352 293 -490 462
-67 81 -194 269 -230 339 -17 34 -17 35 6 80 13 25 27 50 31 55 4 6 35 51 67
100 191 286 469 554 761 732 61 37 230 125 275 144 11 4 40 17 65 27 107 46
348 118 458 137 17 3 47 8 65 11 53 9 97 14 192 20 50 3 91 7 92 8 4 4 198 -2
278 -9z"/>
<path d="M2420 3538 c-102 -19 -132 -30 -126 -47 3 -9 14 -42 26 -74 72 -203
-15 -447 -203 -568 -87 -57 -154 -74 -277 -73 -90 0 -114 4 -167 26 -35 15
-65 23 -68 19 -2 -5 -11 -48 -20 -97 -17 -94 -18 -234 -3 -312 4 -26 10 -57
13 -70 29 -161 151 -381 276 -498 112 -104 261 -193 393 -233 356 -109 732
-19 992 238 225 221 330 527 290 844 -4 33 -11 70 -16 83 -5 13 -7 24 -5 24 2
0 -9 38 -25 84 -52 146 -126 264 -239 376 -149 148 -324 238 -531 275 -83 15
-241 16 -310 3z"/>
</g>
</svg>
